<?xml version="1.0" encoding="UTF-8"?><svg id="Layer_1" xmlns="http://www.w3.org/2000/svg" viewBox="0 0 4545.21 1636.83"><defs><style>.cls-1{fill:#000;fill-rule:evenodd;}.cls-1,.cls-2{stroke-width:0px;}.cls-2{fill:#231f20;}</style></defs><path class="cls-1" d="M918.71,120.45c-17.54-41.26-48.08-65.12-73.28-79.31C782.94.31,676.24-14.17,607.76,16.31c-212.2,86.98-238.6,374.99-240.07,509.47l2.18,31.72c-21.48.73-45.86-9.53-79.54-26.56-55.39-36.16-66.3-102.67-66.65-164.44,11.35-102.92,57.12-211.11,160.09-257.26,30.54-14.33,55.65-25.19,85.13-34.06-18.34,1.25-71.68,13.83-71.68,13.83-128.8,22.71-252.59,140.23-286.27,262.64-37.2,135.37,4.23,247.58,94.74,324.19,59.25,53.28,172.41,50.28,241.25,14.12l35.43,25.76,31.72,4.5,33.05,17.03,44.16,20.01c27,7.78,39.35,12.66,65.56,36.46,26.12,23.8,10.84,88.12-15.94,126.83l-29.4,44.47c-15.94,23.06-37.48,50.36-54.29,72.48-.73,8.52-27.95,44.99-14.05,49.57,5.24-8.52,43.07-55.68,62.15-77.51l27.73-42.42c21.69-48.62,15.71-18.34,34.91-67.3,9.91-28.75,22.72-56.06,22.35-88.73-6.38-57.12-107.26-84.03-107.26-84.03l-18.68-6.04c-22.06-6.76-58.96-23.57-63.18-25.54-4.31-2.04-31.37-16.52-31.37-16.52,0,0,18.86-4.81,41.05-17.54,22.19-12.66,46.35-51.96,57.49-72.55,11.06-20.61,63.08-74.38,89.8-80.35,12.09-2.1,43.8-25.04,85.07-32.1-2.48-13.76-141.18,18.62-179.23,80.11-24.67,39.73-44.32,66.52-44.32,66.52-3.42,9.09-24.1,24.07-38.95,31.21l-31.21,11.66c-3.51-.88-51.15-35.67-51.67-85.52,21.24,2.13,68.55-3.85,91.26-8.72,0,0,24.38-9.75,45.77-25.34,11.14-8.21,28.96-32.81,39.51-47.22,10.48-14.47,28.53-35.29,28.53-35.29l13.9-10.41c23.81-20.6,49.35-36.17,75.24-51.07,17.02-12.44,14.92,15.2,28.75,10.26,3.93-13.1-4.59-26.99-17.02-34.05-5.68.36-12.44-1.44-17.04,1.75-20.57,15.64-41.83,29.83-62.79,44.02,0,0-27.95,21.24-35.87,29.12-7.86,7.85-13.38,14.71-27.81,30.43-14.47,15.8-36.16,66.21-95.46,70.15l-66.59,4.44c-1.09-119.27,27.92-260.87,73.99-364.52C518.77,88.96,602.09,4.47,712.11,9.43c68.49,5.67,148.04,69.21,172.11,138.04,41.22,125.6-41.97,203.11-129.32,278.64,1.09,5.02,6.76,4.66,10.34,6.76,37.92-13.81,67.03-49.69,100.44-74.87h-13.55c62.81-65.65,103.72-150.06,66.59-237.54h0ZM430.19,676.78c3.93,2.1-96.48,46.57-169.05,7.2-95.85-50.35-136.81-152.43-132.86-257.89,10.25-115.26,72.32-223.2,177.05-285.98h4.95c-70.59,72.4-123.13,150.62-117.45,250.69,2.83,56.83,38.07,135.37,91.68,159.15,29.4,15.58,79.89,30.43,85.13,30.43,7.86,44.65,43.45,87.16,60.54,96.4h0Z"/><path class="cls-1" d="M1019.51,361.42c-24.16,10.62-33.06,36.54-49.35,54.64-2.87,11.71,11,5.32,15.28,12-8.9,8.52-23.81,9.99-34.05,18.51-26.65,48.6-63.18,103.62-40.83,161.82,26.93,64.91,92.28,113.89,113.89,180.62-45.07-82.73-166.08-144.29-149.33-252.13,5.29-23.07,32.61-45.94,40.4-67.96l-13.05,9.16c-89.8,53.93-217.88,166.14-203.92,238.77,23.81,123.71,147.74,90.46,152.63,171.73-9.25,69.58-92.51,126.12-143.58,171.17-6.42,4.49-14.3,6.39-22.06,5.3l1.83-8.52c47.52-46.13,115.29-91.55,130.92-156.82,1.47-59.25-66.37-68.12-100.41-100.41-24.45-24.47-48.91-56.77-47.37-105.96-4.73-82.51,145.48-194.35,259.05-250.41,18.44-26.63,37.77-67.3,62.59-90.01,10.32.36,18.12,5.65,27.37,8.5h0ZM1033.04,1016.66c-18.57,21.76-54.43,8.38-74.84,29.39-39.87,12.75-132.51,6.93-132.51,6.93,0,0-20.67-9.61,5.47-12.02,26.2-2.4,87.82-7.63,128.89-19.2,24.29,2.18,52.31-1.82,71.52-13.83l1.47,8.73h0ZM371.77,1167.8c11.85,2.33,39.29,6.04,62.96,7.56,136.87,13.4,261.24,7.51,388.38-23.72,5.37-3.28,55.89-27.73,55.15-34.63-98.82,24.95-227.26,40.31-285.27,36.52-8.35-.57-175.36-5.1-183.16-5.67-38.05-2.91-75.54-14.19-80.26-28.47-4.81-14.33,49.92-23.58,73.86-26.2h70.58l5.45-3.55-14.11-3.27c-20.82.49-24.6-4.09-48.69-5.46-19.43-3.93-111.49,3.71-108.22,21.04-4.66,5.1,4.72,13.1-3.19,17.46-12.37-5.45-28.75-18.2-42.14-15.64,5.81,7.63,16.15,24.44,23.42,28.09,14.57,6.91,7.57,7.41,31.35,19.26,23.84,11.95,41.94,14.28,53.89,16.68h0Z"/><path class="cls-1" d="M560.24,1284.23c137.18-1.61,254.04-28.82,347.91-72.68,8.38-6.2,21.91-4.31,28.17-29.04l-34.28,15.78c-129.62,33.41-315.9,61.33-457.08,51.53-6.91-3.62-40.25-2.33-61.87-5.1-9.39,3.28-57.99-5.38-62.73-24.45-2.39-9.47,25.77-28.68,47.16-33.05l-20.44-3.93c.36,3.28-17.54,2.33-19.35,4.5-11.65,6.2-17.83,14.94-29.77,21.13,0,0-8.95,18.04-4.81,27.21,4.23,9.25,30.92,18.11,45.11,26.86,2.48,4.34,28.62,7.42,61.93,14.54,33.35,7.2,160.05,6.69,160.05,6.69h0ZM784.67,1355.69c-32.17,14.05-125.66,27.07-170.88,34.2-45.26,7.15-116.43,5.62-137.82.86-21.39-4.71-59.39-17.96-66.38-19.34-26.83-5.47-44.59-11.58-39.93-15.21-21.39-11.93-40.53-9.03-48.48-38.48-6.54-17.04,17.39-23.23,24.31-32.98l-10.17,27.94c9.45,13.76,29.74,17.39,46.85,20.67,0,0,68.05,24.24,129.92,28.96,45.61,3.49,197.63-9.53,219.82-15.87s136.23-32.89,162.42-49.4c0,.03-87.33,48.91-109.66,58.66h0Z"/><path class="cls-1" d="M940.48,948.39c-16.74,13.83-35.82,18.05-34.73,42.79l5.12-1.44,3.62,8.65c.35-4.37,6.56-6.12,6.91-10.48,43.51-45.77,91.24-54.43,147.88-72.57,18.55-.73,43.95-6.91,59.19,5.46,10.95,23,29.64,38.35,6.06,69.87-9.83-14.85,5.47-32.75-30.35-45.34-5.29-3.35-28.81-3.05-28.81-3.05-10.92,2.54-26.87,10.48-36.33,17.77,20.31-3.66,55.23,4.44,61.93,13.38,9.01,11.87,14.49,30.12,9.75,45.69-5.1,16.38-13.4,31.81-22.8,49.57-22.46,38.84-59.08,62.13-84.12,98.08h5.12c70.57-46.94,112.93-87.78,151.79-168.39,3.64-11.13,6.19-73.06,30.14-72.35,12.01.44,26.34,1.47,33.97,4.01,9.68,7.79,12.74,10.19,18.57,20.67,4.28,17.09,11.48,12.23,19.48,23.06,0,0,7.73.6,12.54,11.37,4.71,10.67-23.97,77.07-55.52,107.55l-44.99,45.55c-74.42,72.97-114.68,101.31-215.62,122.32-11.62,4.75-30.12-3.26-38.11,6.91,19.27,10.93,57.09-2.48,78.51-1.74,138.92-26.06,243.05-158.22,252.59-172.55,9.47-14.25,61.74-80.56,36.68-130.62-41.39-73.73-115.48-111.5-195.31-113.3-39.95,1.47-75.61,5.24-110.83,17.25-9.12,11.71-21.26,6.99-26.07,17.76-11.65,9.82-24.8,14.19-38.59,18.57.8,4.72,17.91.8,21.69,1.66,7.52-1.17,36.91-3.79,51.53-22.27,39.6-11.27,61.2-21.67,107.35-12.3.74,1.82-.74,2.56-1.47,3.64-62.25,9.09-156.78,74.8-156.78,74.8h0ZM235.4,954.44c-5.1-2.91-8.24-10.41-8.59-16.23,26.83-18.48,61.11-16,91.97-25.47,37.48-14.54,76.99-22.26,115.04-27.57,29.26-.64,168.24-19.07,185.79-19.78l40.97-.43c-3.68-2.21-7.72-3.76-11.93-4.59,0,0-43.15-11.35-57.4-10.26l-58.95.23-26.55,1.96c-38.57,2.91-62.67,10.62-99.84,13.38-17.18,0-223.2,51.67-229.9,81.29-1.67,10.62-1.44,13.81,1.82,18.83,18.86,25.85,40.53,26.72,70.67,29.25l6.91,5.1c-9.96,28.33,38.14,38.65,63.59,49.29,85.3,23.2,177.79,18.05,270.73,17.68l13.59.14c18.86,1.82,53.71.66,85.89-.52,32.1-1.23,92.92-25.97,92.92-25.97,0,0-128.08-3.14-143.5-3.14s-66.5,2.76-76.61,1.32c-7.08-.6-45.58,2.24-52.05.29-45.77-1.09-119.27-3.94-147.8-8.74-28.6-4.72-49.12-5.73-52.02-8.65-5.1-2.33-28.53-6.63-32.9-15.72l5.1-5.46c34.51,5.81,71.9-.52,102.76,1.82,69.35,2.19,147,4.01,210.89-1.82,76.28,2.91,154.34-9.75,228.33-22.49,44.33,1.47,78.45-52.54,78.45-52.54-15.28,8.72-77.87,18.62-94.16,24.82-120.15,11.62-195.16,13.53-318.95,12.15,1.82-4.01-83.54-1.82-83.54-1.82l-115.04,1.82-22.42-2.33-33.25-5.85h0ZM1262.57,1438.87c1.06,15.86-13.71,25.55-22.29,37.77-38.12,22.71-84.56,30.28-127.8,34.56-55.35,9.39-430.44,40.3-486.9,41.78-91.4-4.01-271.07,7.48-399.14-40.17-.29-1.45,453.79,6.55,454.9,5.82l119.11-10.34c97.6-13.05,198.75-16.3,291.59-44.4,2.1-1.09,37.64-17.83,41.22-19,2.61-2.1,20.28-15.72,20.67-31.96.32-12.58-6.86-23.36-14.06-31.3-5.05-4.63-12.94-8.64-18.69-6.82,4.99,4.66,9.38,11.14,15.47,13.68,16.9,12.23-4.71,23.2-12.28,29.47-51.45,33.11-113.67,27.95-178.06,30.05,0,0-23.68-.14-52.26-1.37-57.2,1.44-106.47-.73-158.65-2.18-139.2,3.27-273.84,9.75-407.3-1.83-5.68-.51-9.88-1.02-16.45-1.37-41.4-1.09-74.97-6.47-114.9-10.48-6.48-1.61-50-1.25-51.45-28.25,25.16-25.91,61.55-31.66,96.42-38.13,21.24-.35,39.21-13.31,60.47-8.65v-5.03c-10.76.36-21.1.23-37.11-.29-11.87-1.82-19.14-2.18-35.21.29-64.77,1.1-119.13,27-172.69,55-10.83,7.95-13.01,15.73-8.64,33.12,4.34,17.47,19.78,30.95,32.74,39.58-29.32-.52-57.74-10.22-81.27-27.73,2.83,5.1,1.72,11.58,7.11,15.51,52.54,43.5,123.78,41.02,190.01,51.81l56.85,29.45c179.96,64.77,384.64,32.1,575.01,24.18,68.78-6.48,133.1-3.23,212.35-19.01,72.93-12.74,91.7-18.27,136.66-29.04,32.75-15.86,84.2-25.02,89.96-71.07-3.93-3.55,1.44-12.58-5.38-13.67ZM193.53,1485.3l-25.89-27.73c-5.76,5.38,3.92,17.33-1.84,22.71-35.94-6.85-93.94-18.13-101.8-36.39-7.94-18.27,38.13-42.42,64.03-48.18l5.05,22.27c16.51,33.49,52.9,33.49,82.73,41.4,89.6,8.3,182.07,19.43,271.3,17.25l278.2-1.74,106.24-4.81c-191.76,42.51-483.69,19.52-678.02,15.23h0Z"/><path class="cls-1" d="M503.19,962.44c33.4-39.96,43.59-60.54,52.68-78.74,11.8-23.8,13.24-67.17,13.24-67.17-4.58-27-.43-40.76-24.97-59.6l-7.48-5.98-31.72-4.5,20.3,17.3c5.97,7.29,13.76,12.72,18.57,43.67,4.72,30.92-5.03,52.83-14.49,76.64-8.08,20.06-28.24,47.35-48.84,77.21l22.71,1.17h0Z"/><path class="cls-2" d="M1679.05,1233.37h-250.89v-59.39l72.7-21.5v-568.33l-72.7-22.53v-59.39h250.89v59.39l-73.73,22.53v568.33l73.73,21.5v59.39Z"/><path class="cls-2" d="M2184.9,955.87c0,43.02-4.61,82.09-13.83,117.25s-22.53,65.55-39.94,91.14-39.59,45.22-66.56,58.88c-26.97,13.64-58.55,20.47-94.72,20.47-33.45,0-63.33-6.83-89.61-20.47-26.28-13.66-48.47-33.11-66.56-58.38-18.09-25.25-31.73-55.47-40.95-90.62s-13.81-74.58-13.81-118.27c0-60.06,7.84-111.27,23.55-153.59,15.69-42.33,39.41-74.92,71.16-97.8s71.17-34.31,118.28-34.31c43.69,0,81.39,10.94,113.14,32.78s56.33,53.94,73.73,96.25c17.41,42.33,26.12,94.55,26.12,156.67ZM1862.34,956.89c0,43.02,3.75,79.55,11.27,109.58,7.5,30.03,19.45,52.73,35.83,68.09s37.2,23.03,62.47,23.03,45.91-7.5,61.95-22.52c16.03-15.02,27.98-37.72,35.83-68.09s11.78-67.42,11.78-111.11-3.94-80.39-11.78-110.08-19.8-52.05-35.83-67.08c-16.05-15.02-36.7-22.53-61.95-22.53-38.91,0-66.91,16.91-83.97,50.69-17.06,33.8-25.59,83.8-25.59,150.02Z"/><path class="cls-2" d="M2464.44,1156.58c10.23,0,20.64-1.19,31.23-3.58,10.58-2.39,20.64-5.3,30.2-8.72v79.88c-11.61,6.16-25.27,10.92-40.95,14.34-15.7,3.39-32.42,5.11-50.17,5.11-27.31,0-50.7-5.64-70.16-16.89s-34.3-28.66-44.53-52.22c-10.25-23.55-15.36-54.09-15.36-91.66v-319.48h-59.39v-52.22l64.5-30.72,29.7-121.86h66.56v121.86h113.66v82.94h-113.66v312.31c0,27.31,4.59,47.62,13.81,60.94s24.06,19.97,44.55,19.97Z"/><path class="cls-2" d="M3091.14,583.14c-29.36,0-54.97,7.17-76.81,21.5-21.84,14.34-39.94,34.48-54.27,60.42-14.34,25.94-25.09,56.33-32.25,91.14-7.17,34.81-10.75,72.36-10.75,112.62,0,58.72,6.81,109.23,20.47,151.56s33.8,74.75,60.42,97.28,59.05,33.78,97.28,33.78c23.89,0,46.77-2.89,68.61-8.7,21.84-5.8,43.34-13.14,64.52-22.02v92.16c-21.17,10.25-43.53,17.92-67.08,23.05-23.56,5.11-50.02,7.67-79.36,7.67-58.72,0-108.38-15.02-149-45.05s-71.52-73.22-92.67-129.53-31.73-123.39-31.73-201.22c0-53.94,5.8-103.59,17.41-149,11.59-45.39,29.17-85.16,52.73-119.3,23.55-34.12,52.91-60.58,88.06-79.36,35.16-18.77,75.59-28.16,121.34-28.16,29.34,0,57.67,3.42,84.98,10.25s52.91,17.06,76.81,30.7l-34.81,87.05c-18.44-10.23-37.91-18.94-58.38-26.11-20.48-7.16-42.33-10.75-65.53-10.75Z"/><path class="cls-2" d="M3527.36,670.17c57.34,0,99.48,16.22,126.45,48.64,26.97,32.44,40.45,80.05,40.45,142.84v371.72h-74.75l-16.39-75.78h-3.06c-11.61,19.12-24.41,35.17-38.41,48.14s-29.7,22.53-47.11,28.67c-17.41,6.12-37.72,9.2-60.92,9.2-30.03,0-55.47-7.34-76.28-22.02-20.83-14.67-36.53-34.64-47.11-59.89-10.59-25.25-15.88-53.59-15.88-85,0-55.97,17.41-98.81,52.22-128.52,34.81-29.69,86.02-45.91,153.61-48.64l73.73-3.06v-31.75c0-39.59-6.66-68.27-19.97-86.02s-33.62-26.62-60.94-26.62c-19.12,0-38.75,3.25-58.88,9.73-20.14,6.48-41.14,15.53-62.98,27.12l-30.72-74.75c23.89-13.64,50-24.39,78.34-32.25,28.33-7.84,57.86-11.78,88.58-11.78ZM3539.64,968.15c-43.02,2.06-74.08,11.95-93.19,29.7-19.12,17.75-28.67,43.36-28.67,76.8,0,30.05,6.31,52.23,18.94,66.56,12.62,14.34,29.88,21.5,51.72,21.5,31.41,0,56.83-12.62,76.3-37.89,19.45-25.25,29.19-60.75,29.19-106.5v-53.23l-54.28,3.06Z"/><path class="cls-2" d="M4050.62,763.36h-102.39v470.02h-101.39v-470.02h-73.72v-52.22l73.72-32.78v-29.69c0-44.38,4.94-81.41,14.84-111.11,9.91-29.69,25.78-51.7,47.62-66.05,21.84-14.33,50.17-21.5,85-21.5,18.42,0,35.31,1.72,50.67,5.12s30.89,7.84,46.61,13.31l-24.58,78.84c-9.56-3.41-19.47-6.31-29.7-8.7-10.25-2.39-20.48-3.59-30.72-3.59-21.17,0-36.19,8.55-45.06,25.61s-13.3,45.39-13.3,84.98v34.83h102.39v82.94Z"/><path class="cls-2" d="M4310.71,671.2c41.64,0,76.8,10.59,105.47,31.75s50.34,50.17,65.03,87.03c14.67,36.88,22.02,79.53,22.02,128v61.44h-294.91c1.36,60.08,12.97,105.14,34.81,135.17s53.92,45.05,96.25,45.05c25.25,0,48.98-3.06,71.17-9.2s45.22-16.05,69.12-29.7v87.05c-21.84,11.61-44.89,20.48-69.12,26.62-24.25,6.12-51.05,9.2-80.39,9.2-49.84,0-91.31-11.77-124.42-35.33-33.11-23.55-57.86-56.48-74.23-98.81-16.38-42.31-24.56-91.81-24.56-148.48,0-62.11,8.02-114.67,24.06-157.69,16.03-43,39.25-75.77,69.62-98.3s67.06-33.8,110.08-33.8ZM4310.71,751.08c-29.36,0-52.91,12.64-70.66,37.89s-28,63.48-30.72,114.67h197.64c0-29.34-3.42-55.28-10.25-77.81s-17.41-40.61-31.75-54.27-32.42-20.48-54.27-20.48ZM4458.81,458.2c-6.83,10.25-16.05,22.19-27.64,35.84-11.61,13.66-24.23,27.83-37.89,42.5-13.66,14.69-27.48,28.67-41.48,41.98s-26.45,24.75-37.36,34.3h-67.59v-12.28c12.28-16.38,24.06-33.28,35.33-50.69s22.02-34.81,32.27-52.22c10.23-17.41,18.77-33.62,25.59-48.66h118.78v9.22Z"/><rect class="cls-2" x="1428.15" y="1332.22" width="2720.33" height="33.52"/><rect class="cls-2" x="1428.15" y="1398.25" width="1949.6" height="30.52"/><rect class="cls-2" x="1428.15" y="1452.69" width="989.36" height="27.99"/></svg>